<?xml version="1.0" encoding="UTF-8" standalone="no"?>
<svg xmlns="http://www.w3.org/2000/svg" xmlns:xlink="http://www.w3.org/1999/xlink" xmlns:serif="http://www.serif.com/" width="100%" height="100%" viewBox="0 0 2472 844" version="1.1" xml:space="preserve" style="fill-rule:evenodd;clip-rule:evenodd;stroke-linejoin:round;stroke-miterlimit:2;">
  <g>
    <g>
      <g>
        <g>
          <g>
            <rect x="4.167" y="27.161" width="860.429" height="574.625" style="fill:none;stroke:#000;stroke-width:8.33px;"></rect>
            <path d="M415.832,148.126l7.204,-21.1l-18.867,-13.041l23.325,-0l7.213,-21.096l7.191,21.096l23.325,-0l-18.862,13.046l7.2,21.095l-18.863,-13.041l-18.866,13.041Z" style="fill-rule:nonzero;"></path>
            <path d="M415.832,527.099l7.204,-21.096l-18.867,-13.046l23.325,0l7.213,-21.096l7.191,21.096l23.325,0l-18.862,13.046l7.2,21.096l-18.863,-13.042l-18.866,13.042Z" style="fill-rule:nonzero;"></path>
            <path d="M321.241,173.587l7.204,-21.096l-18.866,-13.046l23.325,0l7.208,-21.096l7.196,21.1l23.325,0l-18.867,13.042l7.204,21.1l-18.866,-13.046l-18.863,13.042Z" style="fill-rule:nonzero;"></path>
            <path d="M510.571,173.587l7.204,-21.096l-18.867,-13.046l23.325,0l7.2,-21.096l7.213,21.1l23.321,0l-18.867,13.042l7.2,21.1l-18.867,-13.046l-18.862,13.042Z" style="fill-rule:nonzero;"></path>
            <path d="M321.241,501.534l7.204,-21.112l-18.866,-13.029l23.325,-0l7.208,-21.096l7.196,21.096l23.325,-0l-18.867,13.046l7.204,21.095l-18.866,-13.041l-18.863,13.041Z" style="fill-rule:nonzero;"></path>
            <path d="M251.96,432.352l7.213,-21.096l-18.875,-13.029l23.325,-0l7.2,-21.096l7.204,21.096l23.325,-0l-18.867,13.042l7.205,21.1l-18.867,-13.046l-18.863,13.029Z" style="fill-rule:nonzero;"></path>
            <path d="M580.006,432.352l7.204,-21.096l-18.866,-13.029l23.325,-0l7.2,-21.096l7.208,21.096l23.325,-0l-18.867,13.042l7.2,21.1l-18.866,-13.046l-18.863,13.029Z" style="fill-rule:nonzero;"></path>
            <path d="M251.96,242.776l7.213,-21.095l-18.875,-13.046l23.325,-0l7.2,-21.092l7.204,21.096l23.325,-0l-18.867,13.042l7.205,21.1l-18.867,-13.046l-18.863,13.041Z" style="fill-rule:nonzero;"></path>
            <path d="M226.178,337.531l7.204,-21.096l-18.867,-13.042l23.325,0l7.205,-21.096l7.208,21.1l23.329,0l-18.875,13.042l7.2,21.1l-18.862,-13.042l-18.867,13.034Z" style="fill-rule:nonzero;"></path>
            <path d="M605.344,337.531l7.204,-21.096l-18.866,-13.042l23.316,0l7.209,-21.096l7.208,21.1l23.325,0l-18.871,13.042l7.2,21.1l-18.862,-13.042l-18.863,13.034Z" style="fill-rule:nonzero;"></path>
            <path d="M580.006,242.776l7.204,-21.095l-18.866,-13.046l23.325,-0l7.2,-21.092l7.208,21.096l23.325,-0l-18.867,13.042l7.2,21.1l-18.866,-13.046l-18.863,13.041Z" style="fill-rule:nonzero;"></path>
            <path d="M510.571,501.534l7.204,-21.112l-18.867,-13.029l23.325,-0l7.2,-21.096l7.213,21.096l23.321,-0l-18.867,13.046l7.2,21.095l-18.867,-13.041l-18.862,13.041Z" style="fill-rule:nonzero;"></path>
          </g>
          <g>
            <path d="M175.42,690.826l12.875,4.087c-1.971,7.175 -5.255,12.5 -9.85,15.988c-4.588,3.487 -10.409,5.225 -17.471,5.225c-8.734,-0 -15.9,-2.979 -21.529,-8.946c-5.617,-5.967 -8.425,-14.125 -8.425,-24.462c-0,-10.95 2.825,-19.455 8.479,-25.505c5.646,-6.062 13.075,-9.087 22.287,-9.087c8.042,-0 14.575,2.379 19.6,7.137c2.996,2.809 5.234,6.85 6.729,12.113l-13.15,3.133c-0.77,-3.408 -2.391,-6.1 -4.858,-8.071c-2.462,-1.975 -5.462,-2.962 -9,-2.962c-4.862,-0 -8.817,1.746 -11.85,5.246c-3.042,3.496 -4.558,9.162 -4.558,17.004c-0,8.304 1.491,14.233 4.483,17.754c2.996,3.533 6.883,5.3 11.658,5.3c3.534,0 6.563,-1.117 9.105,-3.371c2.545,-2.237 4.366,-5.762 5.475,-10.583" style="fill-rule:nonzero;"></path>
            <path d="M209.597,691.184c0,4.725 1.121,8.346 3.371,10.859c2.234,2.516 5.004,3.775 8.288,3.775c3.296,-0 6.054,-1.259 8.275,-3.775c2.233,-2.513 3.346,-6.163 3.346,-10.942c-0,-4.667 -1.113,-8.254 -3.346,-10.767c-2.221,-2.512 -4.979,-3.766 -8.275,-3.766c-3.284,-0 -6.054,1.254 -8.288,3.766c-2.25,2.513 -3.371,6.134 -3.371,10.85m-12.912,-0.671c-0,-4.187 1.029,-8.237 3.092,-12.158c2.07,-3.908 4.987,-6.908 8.766,-8.962c3.784,-2.071 8.013,-3.096 12.675,-3.096c7.204,-0 13.109,2.341 17.713,7.012c4.608,4.679 6.904,10.596 6.904,17.742c-0,7.208 -2.317,13.179 -6.979,17.921c-4.638,4.737 -10.496,7.104 -17.554,7.104c-4.359,-0 -8.521,-0.979 -12.492,-2.95c-3.963,-1.983 -6.963,-4.871 -9.033,-8.692c-2.063,-3.804 -3.092,-8.446 -3.092,-13.921" style="fill-rule:nonzero;"></path>
            <path d="M285.894,667.366l12.6,-0l-0,47.633l-12.6,-0l-0,-47.633Zm-0,-18.117l12.6,-0l-0,11.658l-12.6,0l-0,-11.658Zm-35.396,18.117l7.004,-0l0,-3.588c0,-4 0.421,-6.996 1.279,-8.967c0.85,-1.975 2.421,-3.579 4.713,-4.829c2.283,-1.233 5.179,-1.854 8.671,-1.854c3.595,0 7.104,0.538 10.545,1.613l-1.712,8.791c-1.996,-0.479 -3.929,-0.716 -5.783,-0.716c-1.825,-0 -3.125,0.425 -3.925,1.275c-0.792,0.854 -1.184,2.491 -1.184,4.916l0,3.359l9.421,-0l0,9.92l-9.421,0l0,37.717l-12.604,0l0,-37.717l-7.004,0l-0,-9.92Z" style="fill-rule:nonzero;"></path>
            <path d="M355.143,715.004l-12.6,-0l-0,-24.308c-0,-5.142 -0.267,-8.471 -0.808,-9.984c-0.538,-1.512 -1.417,-2.683 -2.63,-3.525c-1.204,-0.825 -2.666,-1.254 -4.37,-1.254c-2.175,0 -4.142,0.608 -5.875,1.8c-1.734,1.192 -2.921,2.775 -3.563,4.75c-0.646,1.979 -0.967,5.633 -0.967,10.946l0,21.575l-12.604,-0l0,-47.633l11.709,-0l-0,6.995c4.154,-5.383 9.387,-8.075 15.7,-8.075c2.779,0 5.32,0.509 7.625,1.505c2.3,1 4.05,2.279 5.216,3.833c1.188,1.558 2.004,3.325 2.471,5.3c0.463,1.975 0.696,4.796 0.696,8.471l-0,29.604Z" style="fill-rule:nonzero;"></path>
            <path d="M394.212,692.129c-1.612,0.537 -4.17,1.187 -7.666,1.929c-3.5,0.746 -5.788,1.479 -6.863,2.196c-1.646,1.171 -2.471,2.646 -2.471,4.437c0,1.771 0.663,3.3 1.971,4.575c1.317,1.292 2.996,1.93 5.029,1.93c2.271,-0 4.442,-0.746 6.505,-2.238c1.52,-1.142 2.52,-2.525 3.004,-4.175c0.329,-1.075 0.491,-3.117 0.491,-6.142l0,-2.512Zm-16.862,-10.225l-11.438,-2.067c1.284,-4.6 3.496,-8.016 6.642,-10.225c3.133,-2.212 7.8,-3.321 13.992,-3.321c5.616,0 9.804,0.671 12.554,1.996c2.758,1.334 4.692,3.021 5.812,5.071c1.117,2.05 1.675,5.813 1.675,11.283l-0.133,14.709c0,4.191 0.208,7.271 0.613,9.266c0.395,1.988 1.15,4.117 2.258,6.388l-12.467,-0c-0.329,-0.838 -0.733,-2.075 -1.212,-3.721c-0.209,-0.75 -0.359,-1.242 -0.442,-1.479c-2.154,2.092 -4.462,3.662 -6.912,4.7c-2.455,1.054 -5.067,1.575 -7.846,1.575c-4.904,-0 -8.771,-1.325 -11.596,-3.992c-2.825,-2.658 -4.242,-6.021 -4.242,-10.091c0,-2.692 0.646,-5.092 1.934,-7.2c1.287,-2.105 3.091,-3.721 5.408,-4.842c2.312,-1.121 5.65,-2.108 10.021,-2.942c5.891,-1.108 9.962,-2.125 12.241,-3.087l0,-1.259c0,-2.42 -0.6,-4.145 -1.791,-5.183c-1.204,-1.033 -3.454,-1.542 -6.771,-1.542c-2.246,0 -3.992,0.434 -5.25,1.325c-1.254,0.88 -2.275,2.425 -3.05,4.638" style="fill-rule:nonzero;"></path>
            <path d="M462.346,715.004l-12.6,-0l-0,-24.308c-0,-5.142 -0.267,-8.471 -0.809,-9.984c-0.537,-1.512 -1.416,-2.683 -2.629,-3.525c-1.204,-0.825 -2.666,-1.254 -4.362,-1.254c-2.184,0 -4.15,0.608 -5.884,1.8c-1.733,1.192 -2.92,2.775 -3.562,4.75c-0.646,1.979 -0.967,5.633 -0.967,10.946l0,21.575l-12.604,-0l0,-47.633l11.708,-0l0,6.995c4.155,-5.383 9.388,-8.075 15.7,-8.075c2.78,0 5.321,0.509 7.625,1.505c2.3,1 4.05,2.279 5.217,3.833c1.188,1.558 2.004,3.325 2.471,5.3c0.462,1.975 0.696,4.796 0.696,8.471l-0,29.604Z" style="fill-rule:nonzero;"></path>
            <path d="M516.66,681.454l-12.42,2.246c-0.425,-2.488 -1.367,-4.354 -2.85,-5.617c-1.484,-1.254 -3.4,-1.875 -5.763,-1.875c-3.133,0 -5.646,1.083 -7.512,3.25c-1.871,2.167 -2.805,5.792 -2.805,10.879c0,5.646 0.95,9.642 2.846,11.971c1.9,2.333 4.454,3.5 7.65,3.5c2.396,0 4.354,-0.687 5.879,-2.033c1.521,-1.367 2.6,-3.704 3.221,-7.025l12.388,2.108c-1.292,5.679 -3.75,9.979 -7.404,12.871c-3.646,2.9 -8.542,4.354 -14.663,4.354c-6.971,0 -12.533,-2.204 -16.662,-6.6c-4.142,-4.392 -6.217,-10.475 -6.217,-18.25c-0,-7.867 2.083,-13.987 6.237,-18.375c4.15,-4.371 9.775,-6.567 16.859,-6.567c5.808,0 10.416,1.25 13.841,3.75c3.43,2.492 5.88,6.296 7.375,11.413" style="fill-rule:nonzero;"></path>
            <path d="M538.417,661.539l6.187,-13.412l14.129,-0l-12.337,13.412l-7.979,0Zm16.104,25.567c-0.096,-3.642 -1.038,-6.421 -2.829,-8.325c-1.796,-1.892 -3.98,-2.846 -6.55,-2.846c-2.755,0 -5.025,1.008 -6.821,3.008c-1.792,2.009 -2.671,4.721 -2.642,8.163l18.842,-0Zm-0.717,12.742l12.554,2.1c-1.612,4.616 -4.162,8.116 -7.65,10.529c-3.483,2.4 -7.833,3.608 -13.079,3.608c-8.275,0 -14.408,-2.704 -18.379,-8.121c-3.146,-4.333 -4.721,-9.808 -4.721,-16.421c0,-7.891 2.075,-14.07 6.2,-18.541c4.129,-4.475 9.346,-6.704 15.646,-6.704c7.087,-0 12.679,2.341 16.775,7.012c4.104,4.683 6.062,11.85 5.879,21.508l-31.579,0c0.096,3.742 1.112,6.65 3.05,8.725c1.942,2.084 4.371,3.113 7.271,3.113c1.971,-0 3.633,-0.538 4.975,-1.617c1.35,-1.066 2.362,-2.808 3.058,-5.191" style="fill-rule:nonzero;"></path>
            <path d="M614.931,690.381c0,5.358 1.063,9.304 3.192,11.862c2.121,2.559 4.7,3.83 7.75,3.83c2.933,-0 5.367,-1.171 7.317,-3.517c1.941,-2.35 2.912,-6.196 2.912,-11.55c0,-4.992 -1,-8.696 -3.008,-11.125c-2.004,-2.413 -4.484,-3.633 -7.438,-3.633c-3.079,-0 -5.641,1.187 -7.675,3.566c-2.033,2.375 -3.05,5.904 -3.05,10.567m-12.471,-23.017l11.755,0l-0,7.009c1.525,-2.396 3.587,-4.342 6.191,-5.838c2.596,-1.496 5.488,-2.246 8.659,-2.246c5.529,0 10.22,2.171 14.083,6.509c3.85,4.341 5.787,10.379 5.787,18.12c0,7.955 -1.95,14.134 -5.837,18.55c-3.888,4.4 -8.592,6.613 -14.129,6.613c-2.625,-0 -5.017,-0.525 -7.154,-1.571c-2.138,-1.046 -4.388,-2.837 -6.75,-5.387l-0,23.995l-12.605,0l0,-65.754Z" style="fill-rule:nonzero;"></path>
            <path d="M685.219,692.129c-1.613,0.537 -4.171,1.187 -7.667,1.929c-3.5,0.746 -5.787,1.479 -6.862,2.196c-1.646,1.171 -2.471,2.646 -2.471,4.437c-0,1.771 0.662,3.3 1.971,4.575c1.316,1.292 2.995,1.93 5.029,1.93c2.271,-0 4.441,-0.746 6.504,-2.238c1.521,-1.142 2.521,-2.525 3.004,-4.175c0.329,-1.075 0.492,-3.117 0.492,-6.142l-0,-2.512Zm-16.863,-10.225l-11.437,-2.067c1.283,-4.6 3.496,-8.016 6.633,-10.225c3.142,-2.212 7.804,-3.321 14,-3.321c5.617,0 9.804,0.671 12.554,1.996c2.759,1.334 4.688,3.021 5.813,5.071c1.116,2.05 1.675,5.813 1.675,11.283l-0.134,14.709c0,4.191 0.205,7.271 0.613,9.266c0.396,1.988 1.15,4.117 2.258,6.388l-12.466,-0c-0.33,-0.838 -0.734,-2.075 -1.213,-3.721c-0.208,-0.75 -0.358,-1.242 -0.446,-1.479c-2.15,2.092 -4.458,3.662 -6.908,4.7c-2.454,1.054 -5.071,1.575 -7.846,1.575c-4.904,-0 -8.771,-1.325 -11.596,-3.992c-2.825,-2.658 -4.241,-6.021 -4.241,-10.091c-0,-2.692 0.645,-5.092 1.933,-7.2c1.283,-2.105 3.092,-3.721 5.404,-4.842c2.317,-1.121 5.654,-2.108 10.025,-2.942c5.892,-1.108 9.963,-2.125 12.242,-3.087l-0,-1.259c-0,-2.42 -0.6,-4.145 -1.792,-5.183c-1.204,-1.033 -3.454,-1.542 -6.771,-1.542c-2.25,0 -3.991,0.434 -5.25,1.325c-1.254,0.88 -2.275,2.425 -3.05,4.638" style="fill-rule:nonzero;"></path>
            <path d="M722.091,715.004l-12.604,-0l-0,-47.633l11.708,-0l-0,6.77c2.004,-3.191 3.804,-5.308 5.404,-6.32c1.596,-1.021 3.413,-1.53 5.454,-1.53c2.867,0 5.625,0.796 8.296,2.38l-3.908,10.991c-2.121,-1.383 -4.096,-2.071 -5.921,-2.071c-1.763,0 -3.25,0.496 -4.483,1.459c-1.225,0.979 -2.192,2.729 -2.892,5.275c-0.704,2.541 -1.054,7.858 -1.054,15.971l-0,14.708Z" style="fill-rule:nonzero;"></path>
            <rect x="10.806" y="759.478" width="12.6" height="65.75"></rect>
            <path d="M36.017,759.66l12.6,-0l-0,9.021c-0,3.645 -0.309,6.525 -0.942,8.629c-0.621,2.112 -1.808,4 -3.563,5.675c-1.75,1.671 -3.97,2.987 -6.662,3.946l-2.463,-5.2c2.542,-0.834 4.355,-1.988 5.43,-3.455c1.075,-1.466 1.645,-3.47 1.7,-6.016l-6.1,-0l-0,-12.6Z" style="fill-rule:nonzero;"></path>
            <path d="M61.852,759.481l13.271,-0l-0,35.617c-0,5.65 0.175,9.312 0.5,10.979c0.571,2.704 1.921,4.862 4.058,6.491c2.138,1.621 5.063,2.438 8.775,2.438c3.767,-0 6.604,-0.763 8.513,-2.308c1.921,-1.542 3.066,-3.43 3.458,-5.675c0.388,-2.246 0.583,-5.967 0.583,-11.171l0,-36.371l13.275,-0l0,34.542c0,7.891 -0.362,13.466 -1.079,16.72c-0.716,3.267 -2.041,6.021 -3.958,8.255c-1.938,2.25 -4.517,4.029 -7.746,5.362c-3.229,1.333 -7.45,1.996 -12.65,1.996c-6.279,-0 -11.046,-0.725 -14.287,-2.175c-3.246,-1.45 -5.8,-3.329 -7.692,-5.654c-1.875,-2.309 -3.117,-4.742 -3.721,-7.288c-0.867,-3.766 -1.3,-9.325 -1.3,-16.679l0,-35.079Z" style="fill-rule:nonzero;"></path>
            <path d="M171.519,825.235l-12.604,0l-0,-24.308c-0,-5.142 -0.271,-8.471 -0.808,-9.984c-0.542,-1.512 -1.413,-2.683 -2.625,-3.525c-1.213,-0.825 -2.667,-1.254 -4.371,-1.254c-2.184,0 -4.142,0.609 -5.875,1.8c-1.734,1.192 -2.929,2.775 -3.563,4.75c-0.646,1.979 -0.966,5.634 -0.966,10.946l-0,21.575l-12.605,0l0,-47.633l11.709,-0l-0,6.996c4.146,-5.384 9.379,-8.075 15.696,-8.075c2.779,-0 5.32,0.508 7.62,1.504c2.3,1 4.05,2.279 5.225,3.833c1.188,1.558 2.005,3.325 2.471,5.3c0.463,1.975 0.696,4.796 0.696,8.471l0,29.604Z" style="fill-rule:nonzero;"></path>
            <path d="M184.302,777.595l12.6,-0l0,47.633l-12.6,0l0,-47.633Zm0,-18.117l12.6,0l0,11.658l-12.6,0l0,-11.658Z" style="fill-rule:nonzero;"></path>
            <path d="M219.824,801.416c-0,4.725 1.121,8.345 3.371,10.858c2.233,2.517 5.004,3.775 8.287,3.775c3.296,-0 6.054,-1.258 8.275,-3.775c2.233,-2.513 3.346,-6.163 3.346,-10.942c-0,-4.666 -1.113,-8.254 -3.346,-10.766c-2.221,-2.513 -4.979,-3.767 -8.275,-3.767c-3.283,-0 -6.054,1.254 -8.287,3.767c-2.25,2.512 -3.371,6.133 -3.371,10.85m-12.913,-0.671c0,-4.188 1.029,-8.238 3.092,-12.159c2.071,-3.908 4.987,-6.908 8.767,-8.962c3.783,-2.071 8.012,-3.096 12.675,-3.096c7.204,0 13.108,2.342 17.712,7.013c4.608,4.679 6.904,10.595 6.904,17.741c0,7.209 -2.316,13.184 -6.975,17.921c-4.641,4.738 -10.5,7.104 -17.558,7.104c-4.358,0 -8.521,-0.979 -12.492,-2.95c-3.962,-1.983 -6.962,-4.871 -9.033,-8.691c-2.063,-3.805 -3.092,-8.446 -3.092,-13.921" style="fill-rule:nonzero;"></path>
            <path d="M309.26,825.235l-12.604,0l0,-24.308c0,-5.142 -0.266,-8.471 -0.804,-9.984c-0.537,-1.512 -1.417,-2.683 -2.629,-3.525c-1.204,-0.825 -2.667,-1.254 -4.371,-1.254c-2.175,0 -4.142,0.609 -5.875,1.8c-1.733,1.192 -2.921,2.775 -3.562,4.75c-0.646,1.979 -0.967,5.634 -0.967,10.946l-0,21.575l-12.604,0l-0,-47.633l11.708,-0l0,6.996c4.154,-5.384 9.388,-8.075 15.696,-8.075c2.783,-0 5.325,0.508 7.629,1.504c2.3,1 4.046,2.279 5.217,3.833c1.187,1.558 2.004,3.325 2.471,5.3c0.462,1.975 0.695,4.796 0.695,8.471l0,29.604Z" style="fill-rule:nonzero;"></path>
            <path d="M375.87,797.337c-0.096,-3.65 -1.029,-6.421 -2.825,-8.321c-1.792,-1.895 -3.983,-2.845 -6.554,-2.845c-2.75,-0 -5.017,1.004 -6.813,3c-1.796,2.008 -2.671,4.729 -2.65,8.166l18.842,0Zm-0.717,12.734l12.554,2.116c-1.612,4.6 -4.162,8.1 -7.641,10.521c-3.488,2.4 -7.846,3.604 -13.079,3.604c-8.284,0 -14.413,-2.7 -18.388,-8.112c-3.137,-4.346 -4.712,-9.813 -4.712,-16.425c-0,-7.892 2.066,-14.079 6.191,-18.546c4.134,-4.471 9.342,-6.704 15.65,-6.704c7.092,-0 12.684,2.337 16.779,7.025c4.096,4.679 6.05,11.846 5.871,21.5l-31.571,-0c0.088,3.737 1.113,6.646 3.055,8.729c1.937,2.075 4.358,3.117 7.266,3.117c1.971,-0 3.625,-0.538 4.975,-1.613c1.338,-1.087 2.363,-2.812 3.05,-5.212" style="fill-rule:nonzero;"></path>
            <path d="M430.005,825.235l-0,-7.137c-1.734,2.55 -4.017,4.558 -6.838,6.016c-2.833,1.463 -5.812,2.196 -8.946,2.196c-3.208,0 -6.075,-0.7 -8.616,-2.104c-2.538,-1.404 -4.388,-3.379 -5.517,-5.929c-1.142,-2.534 -1.708,-6.05 -1.708,-10.534l-0,-30.141l12.604,-0l-0,21.887c-0,6.704 0.233,10.804 0.704,12.317c0.458,1.504 1.3,2.704 2.533,3.579c1.225,0.888 2.775,1.325 4.663,1.325c2.154,0 4.079,-0.583 5.787,-1.767c1.7,-1.179 2.867,-2.645 3.496,-4.391c0.629,-1.759 0.942,-6.038 0.942,-12.854l-0,-20.096l12.6,-0l-0,47.633l-11.704,0Z" style="fill-rule:nonzero;"></path>
            <path d="M466.832,825.235l-12.6,0l-0,-47.633l11.704,-0l-0,6.771c2.004,-3.192 3.804,-5.309 5.404,-6.321c1.596,-1.021 3.412,-1.529 5.454,-1.529c2.867,-0 5.625,0.795 8.296,2.379l-3.908,10.991c-2.121,-1.383 -4.096,-2.07 -5.921,-2.07c-1.763,-0 -3.25,0.495 -4.484,1.458c-1.225,0.979 -2.191,2.729 -2.891,5.275c-0.704,2.542 -1.054,7.858 -1.054,15.971l-0,14.708Z" style="fill-rule:nonzero;"></path>
            <path d="M500.514,801.416c-0,4.725 1.121,8.345 3.362,10.858c2.242,2.517 5.013,3.775 8.296,3.775c3.296,-0 6.054,-1.258 8.275,-3.775c2.233,-2.513 3.338,-6.163 3.338,-10.942c-0,-4.666 -1.105,-8.254 -3.338,-10.766c-2.221,-2.513 -4.979,-3.767 -8.275,-3.767c-3.283,-0 -6.054,1.254 -8.296,3.767c-2.241,2.512 -3.362,6.133 -3.362,10.85m-12.913,-0.671c0,-4.188 1.029,-8.238 3.092,-12.159c2.062,-3.908 4.983,-6.908 8.767,-8.962c3.783,-2.071 8.004,-3.096 12.666,-3.096c7.204,0 13.117,2.342 17.721,7.013c4.608,4.679 6.904,10.595 6.904,17.741c0,7.209 -2.316,13.184 -6.975,17.921c-4.641,4.738 -10.5,7.104 -17.558,7.104c-4.367,0 -8.521,-0.979 -12.492,-2.95c-3.962,-1.983 -6.971,-4.871 -9.033,-8.691c-2.063,-3.805 -3.092,-8.446 -3.092,-13.921" style="fill-rule:nonzero;"></path>
            <path d="M558.732,800.613c0,5.358 1.063,9.304 3.192,11.863c2.121,2.558 4.7,3.829 7.75,3.829c2.929,-0 5.367,-1.171 7.317,-3.517c1.941,-2.35 2.912,-6.196 2.912,-11.55c0,-4.992 -1,-8.696 -3.008,-11.125c-2.004,-2.412 -4.483,-3.633 -7.438,-3.633c-3.079,-0 -5.641,1.187 -7.675,3.566c-2.033,2.375 -3.05,5.905 -3.05,10.567m-12.47,-23.017l11.754,0l-0,7.009c1.525,-2.396 3.587,-4.342 6.191,-5.838c2.596,-1.496 5.488,-2.246 8.659,-2.246c5.529,0 10.221,2.171 14.083,6.509c3.85,4.341 5.788,10.379 5.788,18.121c-0,7.958 -1.95,14.133 -5.838,18.55c-3.887,4.4 -8.592,6.612 -14.129,6.612c-2.625,0 -5.017,-0.525 -7.154,-1.571c-2.134,-1.046 -4.388,-2.837 -6.75,-5.387l-0,23.996l-12.604,-0l-0,-65.755Z" style="fill-rule:nonzero;"></path>
            <path d="M614.94,771.771l6.183,-13.413l14.134,0l-12.342,13.413l-7.975,-0Zm16.104,25.566c-0.096,-3.641 -1.037,-6.421 -2.833,-8.325c-1.792,-1.891 -3.975,-2.846 -6.546,-2.846c-2.754,0 -5.025,1.009 -6.821,3.009c-1.792,2.008 -2.675,4.721 -2.642,8.162l18.842,0Zm-0.717,12.742l12.555,2.1c-1.613,4.617 -4.163,8.117 -7.65,10.529c-3.484,2.4 -7.834,3.608 -13.08,3.608c-8.275,0 -14.408,-2.704 -18.379,-8.12c-3.146,-4.334 -4.721,-9.809 -4.721,-16.421c0,-7.892 2.075,-14.071 6.2,-18.542c4.13,-4.475 9.346,-6.704 15.646,-6.704c7.088,-0 12.679,2.342 16.775,7.012c4.104,4.684 6.063,11.85 5.879,21.509l-31.579,-0c0.096,3.741 1.113,6.65 3.05,8.725c1.942,2.083 4.371,3.112 7.271,3.112c1.971,0 3.633,-0.537 4.975,-1.616c1.35,-1.067 2.363,-2.809 3.058,-5.192" style="fill-rule:nonzero;"></path>
            <path d="M682.125,797.337c-0.095,-3.65 -1.029,-6.421 -2.825,-8.321c-1.791,-1.895 -3.983,-2.845 -6.554,-2.845c-2.75,-0 -5.016,1.004 -6.812,3c-1.796,2.008 -2.671,4.729 -2.65,8.166l18.841,0Zm-0.716,12.734l12.554,2.116c-1.613,4.6 -4.163,8.1 -7.642,10.521c-3.487,2.4 -7.846,3.604 -13.079,3.604c-8.283,0 -14.412,-2.7 -18.387,-8.112c-3.138,-4.346 -4.713,-9.813 -4.713,-16.425c0,-7.892 2.067,-14.079 6.192,-18.546c4.133,-4.471 9.341,-6.704 15.65,-6.704c7.091,-0 12.683,2.337 16.779,7.025c4.096,4.679 6.05,11.846 5.871,21.5l-31.571,-0c0.087,3.737 1.112,6.646 3.05,8.729c1.942,2.075 4.362,3.117 7.271,3.117c1.971,-0 3.625,-0.538 4.975,-1.613c1.337,-1.087 2.362,-2.812 3.05,-5.212" style="fill-rule:nonzero;"></path>
            <path d="M748.235,825.235l-12.6,0l-0,-24.308c-0,-5.142 -0.267,-8.471 -0.809,-9.984c-0.537,-1.512 -1.416,-2.683 -2.629,-3.525c-1.204,-0.825 -2.667,-1.254 -4.362,-1.254c-2.184,0 -4.15,0.609 -5.884,1.8c-1.733,1.192 -2.921,2.775 -3.562,4.75c-0.65,1.979 -0.967,5.634 -0.967,10.946l0,21.575l-12.604,0l-0,-47.633l11.708,-0l0,6.996c4.154,-5.384 9.388,-8.075 15.696,-8.075c2.783,-0 5.325,0.508 7.629,1.504c2.3,1 4.046,2.279 5.217,3.833c1.192,1.558 2.004,3.325 2.471,5.3c0.462,1.975 0.696,4.796 0.696,8.471l-0,29.604Z" style="fill-rule:nonzero;"></path>
            <path d="M804.348,825.235l-12.6,0l-0,-24.308c-0,-5.142 -0.271,-8.471 -0.808,-9.984c-0.538,-1.512 -1.417,-2.683 -2.63,-3.525c-1.204,-0.825 -2.666,-1.254 -4.37,-1.254c-2.175,0 -4.142,0.609 -5.875,1.8c-1.734,1.192 -2.921,2.775 -3.563,4.75c-0.646,1.979 -0.967,5.634 -0.967,10.946l0,21.575l-12.604,0l0,-47.633l11.709,-0l-0,6.996c4.154,-5.384 9.387,-8.075 15.695,-8.075c2.784,-0 5.325,0.508 7.63,1.504c2.3,1 4.045,2.279 5.216,3.833c1.192,1.558 2.004,3.325 2.471,5.3c0.463,1.975 0.696,4.796 0.696,8.471l-0,29.604Z" style="fill-rule:nonzero;"></path>
            <path d="M845.437,797.337c-0.096,-3.65 -1.03,-6.421 -2.825,-8.321c-1.792,-1.895 -3.984,-2.845 -6.555,-2.845c-2.75,-0 -5.016,1.004 -6.812,3c-1.796,2.008 -2.671,4.729 -2.65,8.166l18.842,0Zm-0.717,12.734l12.554,2.116c-1.612,4.6 -4.162,8.1 -7.642,10.521c-3.487,2.4 -7.845,3.604 -13.079,3.604c-8.283,0 -14.412,-2.7 -18.387,-8.112c-3.138,-4.346 -4.713,-9.813 -4.713,-16.425c0,-7.892 2.067,-14.079 6.192,-18.546c4.133,-4.471 9.342,-6.704 15.654,-6.704c7.088,-0 12.679,2.337 16.775,7.025c4.096,4.679 6.05,11.846 5.871,21.5l-31.571,-0c0.088,3.737 1.113,6.646 3.05,8.729c1.942,2.075 4.363,3.117 7.271,3.117c1.971,-0 3.625,-0.538 4.975,-1.613c1.337,-1.087 2.362,-2.812 3.05,-5.212" style="fill-rule:nonzero;"></path>
          </g>
        </g>
      </g>
    </g>
    <g>
      <path d="M1471.73,397.044l12.142,0c11.904,0 21.291,6.071 21.291,17.138c0,10.771 -8.316,17.446 -18.55,17.446c-1.908,-0 -2.362,-0 -3.97,-0.155l-0,-5.762c1.295,0.154 1.679,0.154 2.904,0.154c6.871,0 12.208,-4.25 12.208,-11.229c0,-7.884 -5.875,-11.45 -14.65,-11.45l-4.2,-0l0,47.704l-7.175,-0l0,-53.846Z" style="fill-rule:nonzero;"></path>
      <path d="M1537.51,439.59l-5.729,-9.708l-10.604,-0l-0,21.008l-7.171,0l-0,-53.846l12.362,0c12.513,0 21.446,5.388 21.446,16.229c0,5.763 -2.442,11.071 -9.087,14.18l5.195,8.645c4.884,7.967 7.475,9.255 11.83,9.863l-0.763,5.154c-8.629,-0.225 -11.525,-1.367 -17.479,-11.525m-12.058,-36.625l-4.275,0l-0,21.304c-0,0 4.191,0.154 8.47,0.154c6.188,0 10.68,-4.016 10.68,-10.537c-0,-7.817 -6.25,-10.921 -14.875,-10.921" style="fill-rule:nonzero;"></path>
      <path d="M1586.27,451.72c-16.263,0 -27.713,-11.904 -27.713,-28.433c0,-16.15 11.988,-27.075 28.625,-27.075c17.017,0 28.233,10.925 28.233,26.996c0,17.062 -11.67,28.512 -29.145,28.512m0.229,-49.295c-12.138,-0 -20.459,8.654 -20.459,20.175c0,12.9 8.167,22.904 20.15,22.904l0.684,-0c13.204,-0 21.066,-8.875 21.066,-21.617c0,-12.892 -8.237,-21.462 -21.441,-21.462" style="fill-rule:nonzero;"></path>
      <path d="M1638,450.965l-20.379,-53.921l7.787,0l16.863,46.258l16.487,-46.258l7.255,0l-19.846,53.771l-8.167,0.15Z" style="fill-rule:nonzero;"></path>
      <path d="M1671.73,450.887l0,-53.846l29.079,0l0,5.992l-21.904,-0l0,17.521l20.221,-0l-0,5.841l-20.221,0l0,18.425l23.738,0l-0.538,6.067l-30.375,0Z" style="fill-rule:nonzero;"></path>
      <path d="M1713.24,397.044l7.783,0l31.746,43l-0,-43l6.792,0l-0,53.846l-7.625,0l-31.909,-43.379l0,43.379l-6.787,0l-0,-53.846Z" style="fill-rule:nonzero;"></path>
      <path d="M1797.95,451.646c-17.941,0 -29.541,-10.466 -29.541,-27.446c-0,-17.441 11.529,-27.908 29.616,-27.908c5.263,0 10.679,0.758 16.717,3.179l-0.617,6.217c-6.404,-2.275 -11.212,-3.183 -16.333,-3.183c-14.113,-0 -21.983,7.966 -21.983,21.233c-0,11.912 7.937,21.687 22.745,21.687c4.359,0 10.767,-0.908 17.942,-4.17l-0.458,6.45c-6.334,2.879 -12.517,3.941 -18.088,3.941" style="fill-rule:nonzero;"></path>
      <path d="M1826.78,450.887l-0,-53.846l29.083,0l0,5.992l-21.904,-0l-0,17.521l20.221,-0l-0,5.841l-20.221,0l-0,18.425l23.733,0l-0.525,6.067l-30.387,0Z" style="fill-rule:nonzero;"></path>
      <path d="M1683.56,511.746l-21.984,0l-5.337,15.242l-7.254,-0l19.462,-53.767l7.938,-0.146l20.837,53.913l-7.862,-0l-5.8,-15.242Zm-20.15,-5.687l18.091,-0l-9.387,-25.409l-8.704,25.409Z" style="fill-rule:nonzero;"></path>
      <path d="M1704.62,526.989l-0,-53.842l7.175,0l-0,47.771l23.579,-0l-0.529,6.071l-30.225,-0Z" style="fill-rule:nonzero;"></path>
      <path d="M1744.07,473.142l12.142,0c11.904,0 21.291,6.071 21.291,17.142c0,10.766 -8.321,17.441 -18.55,17.441c-1.908,0 -2.362,0 -3.971,-0.15l0,-5.766c1.3,0.154 1.68,0.154 2.905,0.154c6.87,-0 12.212,-4.25 12.212,-11.225c0,-7.888 -5.883,-11.454 -14.654,-11.454l-4.2,-0l-0,47.7l-7.175,-0l-0,-53.842Z" style="fill-rule:nonzero;"></path>
      <path d="M1786.34,526.989l0,-53.842l29.079,0l0,5.983l-21.904,0l0,17.521l20.221,0l0,5.846l-20.221,0l0,18.421l23.738,-0l-0.534,6.071l-30.379,-0Z" style="fill-rule:nonzero;"></path>
      <path d="M1839.38,527.744c-4.425,0 -9.541,-0.683 -14.35,-2.579l-0.15,-6.446c6.413,2.204 10.3,2.738 14.5,2.738c8.784,-0 11.454,-4.405 11.454,-8.655c0,-3.558 -1.37,-6.366 -8.479,-9.55l-4.271,-1.9c-9.154,-3.941 -11.908,-8.416 -11.829,-14.637c0,-7.733 5.875,-14.325 18.396,-14.325c3.358,-0 7.704,0.371 12.129,1.892l-0.608,6.066c-4.804,-1.437 -8.475,-1.9 -11.296,-1.9c-8.017,0 -11.067,3.338 -11.067,7.667c0,3.633 1.525,6.137 8.78,9.321l4.27,1.829c9.238,3.783 11.909,8.8 11.909,14.858c-0,7.354 -5.192,15.621 -19.388,15.621" style="fill-rule:nonzero;"></path>
      <path d="M1416.94,603.842c-17.934,0 -29.538,-10.462 -29.538,-27.445c0,-17.442 11.525,-27.909 29.613,-27.909c5.262,0 10.687,0.759 16.716,3.179l-0.612,6.217c-6.413,-2.271 -11.217,-3.179 -16.329,-3.179c-14.121,-0 -21.984,7.962 -21.984,21.229c0,11.917 7.934,21.692 22.746,21.692c4.35,-0 10.758,-0.909 17.933,-4.175l-0.458,6.45c-6.333,2.883 -12.517,3.941 -18.087,3.941" style="fill-rule:nonzero;"></path>
      <path d="M1468.83,603.921c-16.254,-0 -27.708,-11.909 -27.708,-28.434c-0,-16.154 11.983,-27.075 28.625,-27.075c17.025,0 28.241,10.921 28.241,26.996c0,17.059 -11.679,28.513 -29.158,28.513m0.238,-49.292c-12.142,0 -20.467,8.646 -20.467,20.167c-0,12.9 8.175,22.904 20.15,22.904l0.696,-0c13.2,-0 21.058,-8.871 21.058,-21.613c0,-12.895 -8.237,-21.458 -21.437,-21.458m-0.317,-17.6l-10.371,8.046l-3.517,-3.717l14.271,-10.921l13.742,10.613l-4.046,4.025l-10.079,-8.046Z" style="fill-rule:nonzero;"></path>
      <path d="M1524.38,555.312l0,47.775l-7.096,-0l0,-47.775l-17.254,-0l0,-6.071l42.133,-0l-0.454,6.071l-17.329,-0Z" style="fill-rule:nonzero;"></path>
      <path d="M1549.02,603.087l-0,-53.842l29.079,-0l-0,5.983l-21.904,0l-0,17.521l20.221,0l-0,5.846l-20.221,-0l-0,18.421l23.737,-0l-0.533,6.071l-30.379,-0Z" style="fill-rule:nonzero;"></path>
      <path d="M1621.06,603.236c-6.105,-0 -11.834,-0 -18.471,-0.15l-0,-53.846c5.654,-0.071 9.462,-0.071 17.475,-0.071c17.404,0 31.596,8.417 31.596,26.009c-0,18.049 -12.209,28.058 -30.6,28.058m-1.371,-48.004c-4.813,-0 -7.179,-0 -9.925,0.079l-0,41.708c3.966,0.15 6.937,0.15 11.6,0.15c14.046,0 22.896,-7.733 22.896,-21.233c-0,-14.554 -11.059,-20.704 -24.571,-20.704" style="fill-rule:nonzero;"></path>
      <path d="M1658.98,567.294l-4.05,-2.429c4.125,-4.55 5.346,-7.963 5.346,-10.467c-0,-1.742 -0.692,-3.563 -2.975,-5.763c0.987,-1.745 2.67,-2.654 4.2,-2.654c3.504,0 5.495,3.417 5.416,6.975c0,2.579 -0.608,6.979 -7.937,14.338" style="fill-rule:nonzero;"></path>
      <path d="M1697.22,587.844l-21.987,0l-5.338,15.242l-7.25,-0l19.463,-53.767l7.937,-0.146l20.838,53.913l-7.867,-0l-5.796,-15.242Zm-20.15,-5.687l18.088,-0l-9.384,-25.405l-8.704,25.405Z" style="fill-rule:nonzero;"></path>
      <path d="M1714,603.087l-0,-5.313l28.62,-42.467l-28.241,0l-0,-6.062l37.479,-0l-0,4.846l-29.008,42.854l31.75,-0l-0.53,6.142l-40.07,-0Z" style="fill-rule:nonzero;"></path>
      <path d="M1784.36,603.921c-15.416,-0 -21.829,-8.038 -21.829,-24.421l0,-30.258l7.179,-0l0,29.429c0,11.979 3.659,19.029 15.342,19.029c10.604,0 14.725,-6.821 14.725,-18.271l-0,-30.187l6.717,-0l-0,31.096c-0,14.562 -7.171,23.583 -22.134,23.583" style="fill-rule:nonzero;"></path>
      <path d="M1841.21,591.786l-5.721,-9.708l-10.609,-0l0,21.008l-7.175,0l0,-53.846l12.363,0c12.521,0 21.45,5.392 21.45,16.234c-0,5.762 -2.446,11.071 -9.088,14.179l5.2,8.646c4.884,7.962 7.475,9.254 11.825,9.862l-0.766,5.15c-8.621,-0.225 -11.525,-1.362 -17.479,-11.525m-12.055,-36.629l-4.275,0l0,21.308c0,0 4.196,0.155 8.467,0.155c6.188,-0 10.688,-4.021 10.688,-10.538c-0,-7.817 -6.255,-10.925 -14.88,-10.925" style="fill-rule:nonzero;"></path>
      <path d="M1197,141.718l-9.858,-17.529l-14.229,0l-0,44.108l-35.475,0l-0,-133.825l40.783,0c37.563,0 62.413,14.517 62.413,44.863c-0,13.754 -6.075,25.817 -19.542,32.796l9.3,14.696c9.292,15.083 13.467,17.15 22.95,18.283l-2.654,24.5c-33.392,-0.379 -40.217,-2.638 -53.688,-27.892m-17.641,-79.729l-6.446,0l-0,37.7c-0,0 6.446,0.371 13.275,0.371c10.625,-0 17.833,-6.025 17.833,-17.904c0,-14.321 -10.054,-20.167 -24.662,-20.167" style="fill-rule:nonzero;"></path>
      <path d="M1270.39,168.292l-0,-133.821l80.433,-0l0,28.837l-44.958,0l-0,23.371l41.546,0l-0,28.271l-41.546,-0l-0,24.125l50.65,-0l-2.088,29.217l-84.037,-0Z" style="fill-rule:nonzero;"></path>
      <path d="M1447.17,170.175c-47.421,-0 -76.825,-22.617 -76.825,-69.358c-0,-43.73 31.112,-68.234 77.021,-68.234c11.375,0 27.316,1.888 40.591,5.85l-3.041,28.642c-16.496,-4.338 -28.259,-5.275 -37.55,-5.275c-25.613,-0 -40.409,12.058 -40.409,37.129c0,27.521 15.738,42.221 38.129,42.221c3.6,-0 8.155,-0.379 13.092,-1.7l0,-35.617l35.467,0l-0,41.088c-0,9.425 0.383,17.146 0.383,17.146c-17.262,5.283 -32.817,8.108 -46.858,8.108" style="fill-rule:nonzero;"></path>
      <rect x="1516.58" y="34.475" width="35.471" height="133.817"></rect>
      <path d="M1639.88,170.175c-42.112,-0 -70.758,-27.888 -70.758,-70.113c-0,-41.65 29.4,-67.479 72.841,-67.479c42.68,0 70.571,25.829 70.571,65.779c0,42.788 -28.65,71.813 -72.654,71.813m-0.383,-108.563c-21.434,0 -33.954,15.642 -33.954,36.75c-0,23.188 13.279,42.984 34.9,42.984l1.141,-0c22.575,-0 34.525,-18.292 34.525,-40.909c0,-23.366 -13.462,-38.825 -36.612,-38.825" style="fill-rule:nonzero;"></path>
      <path d="M1729.58,34.472l39.266,0l56.534,81.988l-0,-81.988l33.762,0l0,133.821l-40.025,-0l-55.766,-81.804l-0,81.804l-33.771,-0l-0,-133.821Z" style="fill-rule:nonzero;"></path>
      <path d="M1519.43,348.197c-10.429,-0 -27.5,-1.884 -39.646,-6.221l-0.567,-29.025c17.071,4.904 29.405,6.787 38.505,6.787c13.47,0 17.075,-5.841 17.075,-11.308c-0,-4.529 -1.7,-8.296 -12.9,-12.817l-7.967,-3.208c-28.258,-9.983 -33.958,-24.308 -33.771,-39.579c0.192,-21.113 15.746,-42.221 52.55,-42.221c9.488,-0 23.329,1.137 34.908,4.9l-2.845,27.146c-12.713,-3.396 -22.196,-4.334 -28.65,-4.334c-14.03,0 -18.017,5.084 -18.017,10.925c-0,4.905 2.279,8.671 16.692,14.138l7.966,3.021c25.984,9.233 31.488,23.366 31.488,38.258c-0,18.283 -11.946,43.538 -54.821,43.538" style="fill-rule:nonzero;"></path>
      <path d="M1653.34,348.387c-43.25,-0 -61.079,-21.3 -61.079,-64.459l-0,-71.437l35.471,-0l-0,72.758c-0,21.296 7.583,32.979 29.025,32.979c18.025,0 24.85,-11.121 24.85,-31.471l-0,-74.266l33.954,-0l-0,70.871c-0,41.837 -20.296,65.025 -62.221,65.025" style="fill-rule:nonzero;"></path>
      <path d="M1790.09,346.503c-17.263,-0 -29.017,-0 -51.783,-0.196l-0,-133.812l46.283,-0c45.525,-0 80.437,22.233 80.437,65.591c0,45.609 -29.412,68.417 -74.937,68.417m-3.225,-105.367c-5.875,0 -8.721,0 -13.083,0.192l-0,75.954c4.929,0.388 9.858,0.388 15.745,0.388c24.655,-0 39.071,-12.825 39.071,-36.759c0,-27.137 -18.404,-39.775 -41.733,-39.775" style="fill-rule:nonzero;"></path>
      <path d="M1350.78,0l-80.642,23.742l80.642,-0l-0,-23.742Z" style="fill-rule:nonzero;"></path>
      <path d="M2202.62,709.938l0,-389.037l261.888,-0l-0,280.746l-261.888,108.291Zm-122.629,-670.25l29.113,0l-0,633.755l-29.113,-11.775l0,-621.98Zm-60.071,0l29.742,0l0,609.713l-29.742,-12.025l0,-597.688Zm-60.07,0l29.491,0l0,585.325l-29.491,-11.929l-0,-573.396Zm209.675,658.188l-30.509,-12.338l0,-646.016l30.509,-0l-0,658.354Zm220.82,-519.129c2.259,-7.325 3.384,-17.996 3.384,-17.996c1.054,2.504 2.558,3.246 6.446,10.125c3.879,6.887 7.537,10.208 12.091,12.4c-3.337,-0.75 -8.433,-1.275 -11.025,0.829c-2.591,2.125 -3.208,7.713 -4.808,10.521c-0.446,-2.808 -3.642,-5.196 -5.858,-5.213c-0.796,0 -3.242,0.738 -4.563,1.3c0,0 2.5,-6.083 4.333,-11.966m-50.383,-102.563c4.5,-0.75 11.496,-3.704 13.504,-7.633c-0.571,4.992 -3.325,7.367 -5.516,9.254c-2.213,1.9 -4.15,2.625 -8.455,2.992c5.192,1.137 11.588,3.641 16.146,4.321c4.575,0.679 14.321,1.291 21.304,-5.525c-1.666,5.75 -3.712,7.879 -9.212,10.195c-3.633,1.538 -6.838,1.68 -9.879,1.834c3.862,3.929 8.287,8.85 14.15,14.371c5.862,5.52 14.85,14.512 27.712,6.5c-1.829,5.37 -6.996,6.954 -12.787,6.12c-5.796,-0.829 -11.188,-3.412 -15.604,-5.975c-4.413,-2.587 -6.605,-8.05 -6.605,-8.05c0,0 -0.75,3.359 0.571,8.417c-2.066,-0.908 -3.404,-3.579 -4.533,-6.358c-1.729,1.441 -3.383,2.429 -3.383,2.429c0.537,-2.35 1.15,-2.167 -1.134,-5.796c-2.825,-4.5 -7.962,-6.942 -9.337,-8.467c1.983,5.842 2.741,10.33 -2.913,13.709l0.184,-2.996c-0,-0 -3.009,7.675 -7.734,7.292c3.209,-2.809 5.284,-4.484 4.729,-9.538c-0.716,-6.342 -1.804,-11.65 -7.354,-16.121c-5.562,-4.466 -11.733,-8.237 -15.821,-8.408c-9.054,-0.379 -11.316,-1.508 -11.316,-1.508c7.346,-0.934 17.137,1.15 24.158,-8.238c-0.158,3.033 -2.067,5.521 -5.267,7.492c4.188,0.521 9.905,0.45 14.392,-0.313m24.758,140.738c-8.662,7.3 -16.483,15.25 -19.033,17.425c12.438,-17.042 9.604,-19.109 9.604,-19.109l-4.716,3.009l1.52,-5.054c0,-0 -22.241,14.4 -33.737,14.041c-0,0 33.542,-10.312 32.217,-45.5c-1.263,-33.896 -12.625,-45.471 -28.255,-53.929c-6.291,-3.033 -14.133,-2.621 -14.133,-2.621l-2.383,-1.016c-0,-0 -3.029,-1.417 -9.338,-3.434c-6.287,-2.016 -16.379,-1.616 -19.012,-1.2c-2.642,0.396 -3.275,-2.204 -0.642,-3.412c2.642,-1.209 23.342,-1.313 25.783,-0.092c0.196,-2.829 -5.695,-6.262 -13,-7.475c-7.304,-1.208 -18.266,-1.208 -20.704,-4.425c-2.429,-3.242 -4.054,-5.246 -2.029,-6.046c2.029,-0.821 10.346,4.009 13.204,2.804c2.846,-1.204 5.879,-1.804 8.313,-3.82c-3.45,-3.225 -4.059,-6.859 -2.229,-10.696c1.275,-2.65 5.25,-7.134 14.158,-8.504c0.312,-0.05 0.671,-0.305 0.917,-0.13c4.125,2.888 9.133,2.567 14.879,2.888c6.929,0.371 20.271,8.392 22.608,18.533c1.496,6.55 -0.042,11.179 -7.921,15.721c0,0 6.388,0.813 11.684,-2.987l-0.367,2.062c10.542,-7.308 7.317,-14.7 7.317,-14.7c2.716,2.242 4.666,4.079 5.308,5.142c1.25,2.083 -0.579,8.991 -0.579,8.991c1.896,0.363 5.854,-3.504 5.854,-2.433c-0,4.867 6.033,5.246 8.85,7.675c1.642,1.396 -2.783,-7.071 -1.304,-5.812c4.1,3.545 8.091,3.745 9.779,5.62c5.887,6.505 17.421,23.388 13.946,46.063c-2.6,16.983 -12.346,40.458 -26.559,52.421m-19.233,20.233c0,0 13.208,-11.829 19.421,-17.242c7.537,-6.554 15.829,-19.283 15.829,-19.283c-1.225,11.2 -5.225,19.863 -4.629,32.558c0.621,12.717 0.767,20.575 5.787,31.163c1.375,2.892 -1.825,2.733 -3.041,0.612c-1.217,-2.125 -4.554,-16.65 -8.209,-19.979c-3.666,-3.304 -7.625,-3.767 -7.625,0.167c0,3.929 -3.2,3.475 -3.804,-0.458c-0.6,-3.93 -1.8,-9.038 -13.729,-7.538m-10.775,-88.062c-0.312,2.708 0.763,10.745 -8.529,9.687c2.754,-3.625 2.283,-5.292 1.825,-9.383c-0.442,-4.088 -2.579,-11.792 -4.563,-14.071c-1.975,-2.25 -3.041,-3.179 -3.041,-3.179c-0,-0 0.446,2.283 1.066,5.004c0.6,2.712 0.309,7.408 -0.62,8.767c-0.9,1.358 -3.342,3.175 -7.755,2.879c2.892,-2.579 3.655,-3.929 3.346,-7.713c-0.379,-4.862 -2.604,-9.842 -5.812,-13.466c7.729,0.187 13.766,3.929 13.766,3.929l10.163,7.304c-0,-0 0.462,7.525 0.154,10.242m-14.762,54.3c6.233,-0.588 9.154,-2.763 15.362,-7.405c5.158,-3.858 8.754,-15.308 12.25,-22.133c0,0 1.138,12.929 0,18.35c-0.812,3.892 -4.971,13.058 -7.354,16.658c-2.371,3.617 -4.733,4.984 -4.733,4.984c-0.296,-1.525 -0.921,-3.329 -1.371,-3.792c-0.613,-0.608 -3.509,-0.146 -3.509,-0.146c0,0 -0.454,0.775 0.93,-1.821c1.345,-2.57 -6.555,-3.47 -11.575,-4.695m-7.575,66.712c-4.059,0 -0.196,-3.837 -4.671,-8.875c-4.467,-5.058 -9.729,-5.85 -19.879,-9.079c13.587,-1.408 21.716,-3 37.537,-14.721c-15.617,10.488 -36.533,3.842 -38.546,2.425c-2.046,-1.408 -5.287,-8.675 -6.5,-9.475c-1.233,-0.812 -1.846,0.4 -5.287,-2.425c-3.442,-2.825 -4.875,-5.033 -2.842,-6.45c2.042,-1.412 0.396,1.613 2.638,-0.196c2.241,-1.812 0.82,-8.075 -3.238,-13.929c-4.062,-5.854 -9.137,-4.625 -12.996,-4.437c0.809,-1.809 4.254,-3.421 9.125,-3.017c4.867,0.4 1.617,0.808 16.654,15.112c23.771,22.659 42.284,14.984 63.388,3.567l-0.946,2.992c0,-0 2.025,0.541 5.467,-1.684c-3.021,5.617 -7.017,9.871 -17.167,27.205c-10.142,17.333 -3.45,31.245 3.046,36.5c6.504,5.254 6.9,0.604 11.158,0.82c-0.387,1.792 -2.633,5.634 -11.558,3.625c-8.938,-2.012 -11.167,-11.108 -12.996,-15.15c-1.833,-4.02 -7.917,-6.45 -9.75,-6.45c-1.829,0 1.429,3.642 -2.637,3.642m-387.946,-237.512l-0,573.654l275.262,111.35l1.317,0.533l270.487,-111.883l0,-573.654l-547.066,-0Z" style="fill-rule:nonzero;"></path>
      <path d="M2291.17,94.166c3.271,1.288 3.571,1.588 4.404,1.663c0.842,0.066 10.738,-2.954 15.075,-3.025c4.338,-0.071 10.488,3.721 13.571,12.596c1.046,-7.313 -0.558,-8.663 -2.537,-10.855c-1.967,-2.191 -5.525,-3.587 -7.859,-3.645c1.396,-1.205 4.817,-1.05 5.892,-1.125c-3.362,-0.992 -7.996,-1.738 -14.387,0.075c-6.4,1.812 -8.442,4.562 -9.217,4.55c-0.758,-0.005 -4.942,-0.234 -4.942,-0.234" style="fill-rule:nonzero;"></path>
      <path d="M2304.83,99.657c0.029,1.316 1.204,2.337 2.613,2.3c1.412,-0.042 2.508,-1.138 2.466,-2.455c-0.058,-1.308 -1.233,-2.333 -2.625,-2.308c-1.404,0.058 -2.521,1.154 -2.454,2.463" style="fill-rule:nonzero;"></path>
      <path d="M2419.71,454.635l-0.834,4.184l0.834,5.075l-0.417,6.091l0.417,5.5l-0.417,5.609l-0.837,5.079l-1.671,3.229l-0,4.179l-0.896,5.559l-0.417,4.658l-1.254,4.596l-0.837,4.662l-1.675,-1.433l-0.421,-4.121l-0,-14.396l-0.413,-8.304l-2.512,0.896l-1.313,-4.179l0,-3.229l-1.671,0.895l-1.67,-2.745l-0.48,-3.167l-1.2,1.312l-2.087,-1.854l-1.317,-4.654l-1.254,0.95l-2.508,-1.846l-1.254,-4.187l-0.059,-0.238l-0.6,0.421l-2.208,-0.362l0.3,3.408l-1.675,2.329l-2.092,-0.475l-1.671,2.325l-2.504,0.958l-0.483,-1.554l-0.775,2.45l-2.15,1.371l-2.929,-0.412l-3.346,0.891l-1.313,-3.704l0,-5.55l0.417,-5.558l0.296,-1.375l-0.771,-0l-0.717,2.508l-0.775,2.929l-2.091,-0.541l-1.679,2.754l-2.509,1.129l-0.891,-3.342l-0.363,-6.691l0,-3.763l-0.833,4.004l-2.092,1.85l-1.254,-4.183l-0.717,-8.363l-2.75,12.43l-1.371,-1.496l-1.675,-11.292l6.988,-3.283l3.346,-3.763l3.941,-1.975l1.138,-2.029l2.271,0.417l1.55,-1.55l0.841,1.55l2.15,1.858l3.284,-0.129l1.437,-1.729l1.729,0.475l1.913,-2.863l2.629,0l7.708,-6.691l0.117,1.137l2.804,2.383l3.409,-0.891l2.266,-2.329l1.021,-2.809l0.117,1.909l2.391,3.529l2.809,1.075l3.166,-1.492l0.596,-1.733l5.075,13.025l2.329,-1.559l-0.058,5.617l0.417,5.075l-0,5.558Z" style="fill-rule:nonzero;"></path>
      <path d="M2326.06,487.842l-1.762,9.6l-1.004,0.958l-1.629,0.967l-2.209,0.733l-2.446,0.225l-2.645,0.254l-3.242,-0.254l-2.013,-1.179l-2.037,-0.746l1.029,1.225l1.008,1.433l1.413,1.45l1.629,1.225l1.808,0.709l2.238,0.245l2.025,-0.245l2.233,-0.234l1.821,-0.725l1.425,-0.975l1.617,-1.929l0.196,2.658l-0.596,1.93l-0.621,1.704l-0.796,1.433l-1.412,1.7l-1.838,1.688l-1.617,1.45l-1.829,0.725l-1.829,0.729l-3.329,1.237l0.925,1.538l1.129,1.929l1.833,-1.721l3.275,-2.546l2.267,-1.412l6.429,-3.667l0.313,3.55l-0.2,3.867l-1.129,2.025l-1.33,1.321l-1.525,1.829l-1.033,1.208l-1.229,0.938l-2.767,2.537l1.534,-0.412l2.254,-1.725l1.433,-0.917l4.296,-3.25l0.512,3.65l-0.308,3.179l-0.204,1.509l-0.713,2.445l1.734,-0.321l0.421,2.959l0.395,2.946l1.934,-7.929l2.771,2.541l-1.021,-2.758l-0.613,-2.925l0.113,-2.142l1.316,-2.641l2.575,3.449l1.209,1.221l1.75,0.417l2.237,1.325l1.454,0.283l1.625,0l1.442,-0.904l-6.346,-2.75l-2.875,-2.137l-1.429,-2.338l-1.021,-2.733l-0.416,-1.934l-0.309,-2.641l-0.329,-2.692l-0.412,-4.358l0.412,-2.642l1.025,2.413l1.408,2.641l1.613,1.946l1.712,1.971c0,-0 3.146,0.654 6.455,3.058c4.695,3.425 5.82,4.571 5.82,4.571l1.021,-2.125l2.459,-4.683l-1.642,0.1l-3.046,-0l-3.037,-0.729l-2.45,-0.955l-2.409,-1.7l-2.029,-1.916l-1.429,-1.704l-1.004,-2.655l-1.017,-2.433l-2.012,-2.879l2.012,1.7l1.625,1.679l2.038,1.454l3.02,1.204l2.838,0.246l3.454,-0.246l2.225,-0.725l2.017,-1.454l2.246,-2.637l1.616,-3.154l-1.229,1.933l-1.612,1.442l-1.817,0.958l-2.233,0.733l-2.425,0.246l-3.042,-0.5l-2.854,-0.479l-2.204,-1.179l-3.346,-10.479" style="fill-rule:nonzero;"></path>
      <path d="M2324.49,389.522l-0.296,1.254l-1.254,-0.179l-1.075,-0.717l-1.379,-0.9l-1.012,-0.533l-1.434,-0.538l-1.375,-0.183l-1.791,-0l-2.034,0.542l-1.491,0.358l-1.2,0.537l-1.25,0l-1.375,0.18l-1.492,-0.18l-1.254,-0.537l-0.959,-0.9l-0.891,-0.954l-0.6,-1.434l-0.596,-2.029l-0.179,-1.612l-0,-1.438l0.775,-0.533l0.6,0.354l0.179,1.079l0.117,1.254l0.595,1.85l1.138,1.075l1.075,0.717l1.312,0.538l1.434,0.179l1.371,0.179l1.2,-0.179l1.195,-0.538l1.071,-0.537l1.259,-0.359l4.125,0l1.487,0.538l2.033,0.358l0.717,0.538l0.779,1.137l0.475,1.613Z" style="fill-rule:nonzero;"></path>
      <path d="M2348.84,362.49l-5.638,7.171l1.442,-10.479l-4.754,8.833l1.05,-10.65l-4.354,9.471l0.387,-10.792l-3.6,9.313l-0.133,-10.384l-3.313,9.505l-0.3,-10.188l-3.266,10l-0.83,-10.558l-2.47,10.112l-1.525,-10.096l-2.059,10.717l-2.883,-9.508l0.65,10.346l0.042,0.054l0.1,3.712c-0,0 5.066,-1.275 10.333,0.096c6.646,1.742 15.967,8.129 15.967,8.129c-0,0.021 0.012,-1.054 0.012,-1.037c0,-0 0.996,-3.879 0.996,-3.9l4.146,-9.867Z" style="fill-rule:nonzero;"></path>
      <path d="M2316.24,441.551l-1.792,3.584l-2.329,8.125l-1.254,4.183l-2.092,-1.854l-0.833,-4l-0,3.762l-0.421,6.692l-0.834,3.342l-2.508,-1.134l-1.675,-2.808l-2.087,0.6l-0.721,-2.871l-0.779,-2.625l-0.771,0l0.296,1.433l0.358,5.555l-0,5.554l-1.254,3.704l-3.342,-0.892l-2.933,0.413l-2.092,-1.371l-0.829,-2.45l-0.483,1.554l-2.509,-0.958l-1.671,-2.329l-2.091,0.479l-1.734,-2.329l0.3,-3.467l-2.145,0.421l-0.605,-0.479l-0.058,0.295l-1.254,4.184l-2.508,1.85l-1.255,-0.954l-1.312,4.658l-2.092,1.854l-1.2,-1.312l-0.475,3.162l-1.675,2.75l-1.671,-0.896l0,3.225l-1.312,4.179l-2.508,-0.891l-0.417,8.304l-0,14.396l-0.421,4.121l-1.675,1.433l-0.833,-4.663l-1.317,-4.654l-0.358,-4.6l-0.896,-5.558l-0,-4.179l-1.671,-3.229l-0.833,-5.134l-0.421,-5.554l0.421,-5.558l-0.421,-6.034l0.833,-5.079l-0.833,-4.179l-0,-5.558l0.421,-5.075l-0.063,-5.617l3.163,0.179l4.841,-12.304l0.655,1.967l3.229,1.137l2.75,-1.371l2.329,-4.783l1.133,2.871l2.329,2.325l3.521,0.542l2.871,-3.288l7.408,6.392l2.692,-0l1.729,3.108l1.971,-0.658l1.492,1.733l3.225,-0.121l2.037,-1.908l0.775,-1.613l1.55,1.846l1.975,-0.654l1.609,2.45l3.704,1.733l3.587,3.938l4.059,0.958Z" style="fill-rule:nonzero;"></path>
      <path d="M2420.05,423.818l-0.425,-4.629l-1.271,-3.712l-1.671,-2.771l-2.121,-3.25c-1.317,-2.275 -2.096,-4.534 -3.329,-5.6c-1.271,-1.092 -5.938,-4.65 -10.546,-4.588c-4.617,0.067 -6.65,3.192 -7.112,4.663c-0.48,1.471 -1.167,8.221 -2.825,8.933c-1.638,0.688 -4.288,-0.633 -6.071,-2.033c-1.813,-1.392 -3.759,-3.188 -6.175,-1.625c-2.429,1.554 -0.696,11.7 -5.15,13.654c-1.271,0.542 -3.525,-1.392 -4.788,-1.321c-1.233,0.1 -6.387,3.583 -8.658,2.871c-2.263,-0.688 -5.146,-4.267 -6.404,-5.813c-1.246,-1.545 -3.092,-2.675 -3.654,-3.12l-2.034,-1.946l-1.221,-1.95l-0.22,-0.534c-1.709,-3.308 -1.855,-5.966 -1.959,-8.016c-0.096,-2.296 0.625,-8.584 0.317,-11.913c-0.317,-3.308 -1.033,-7.75 -1.254,-8.991c-0.134,-0.746 -0.563,-1.034 -0.413,-2.484c0,0 -6.146,-5.296 -14.321,-7.741c-8.191,-2.434 -11.25,-0.288 -11.25,-0.288l0,1.608l-1.837,-0.954l-1.638,-0.254l-2.354,0.496l-1.825,1.067l-1.729,1.591l-1.017,1.45l-0.812,2.684l0.408,2.904l0.809,2.179l0.825,-1.454l1.012,-0.967l1.629,-0.483l2.025,0.246l2.45,0.479l2.446,0.975l2.442,1.458l1.641,1.45l1.421,1.45l0.604,1.95l-0.4,1.454l-1.841,-0.241l-2.225,-0.984l-3.079,-0.475l-2.221,0.246l-2.45,0.979l-2.034,1.45l1.221,-0.246l1.617,-0.25l2.037,0l2.446,0.496l2.246,0.979l1.642,0.959l1.4,0.746l1.446,1.679l1.616,1.475l1.017,1.204l-0,2.175l-0.613,2.204l-0.808,1.696l-0.808,2.183l-0.209,1.7c-0.304,0.638 -1.579,1.225 -3.766,3.234c-2.175,2.029 -2.409,4.041 -3.188,4.975c-0.779,0.912 -2.496,1.166 -3.204,1.85c-0.712,0.691 -1.558,3.104 -2.583,3.345c-1.009,0.234 -5.146,-1.416 -7.171,-2.179c-2.046,-0.779 -2.342,-0.379 -3.992,0.696c-1.629,1.104 -4.621,-2.321 -5.546,-3.887c-0.933,-1.55 -0.075,-7.434 -1.404,-9.163c-1.337,-1.679 -4.125,-0.987 -5.541,0.079c-1.413,1.096 -5.009,3.517 -7.517,2.963c-2.479,-0.55 -2.479,-9.063 -4.267,-10.934c-1.804,-1.875 -3.762,-3.575 -9.304,-2.033c-5.546,1.554 -8.037,5.375 -8.525,6.371l-1.675,3.233l-2.117,3.246l-1.675,2.754l-1.245,3.734l-0.434,4.629l-0.429,5.087l0.429,5.559l0.563,2.454l1.937,-0l6.046,-15.338l2.038,3.75l0.508,1.829l1.229,0.521l1.325,-0.521l1.45,-2.329l0.808,-2.846l1.538,-3.962l1.942,3.846l1.541,3.571l1.225,1.512l1.529,0.208l1.33,-1.008l0.912,-4.283l3.588,3.571l2.975,2.033l3.275,3.154l3.262,-0.1l1.442,2.525l1.533,-0.304l1.946,2.046l1.117,-0l1.133,-0.917l1.837,-3.979l3.071,2.962l2.45,-0.608l1.429,2.329l4.509,2.546l2.975,3.367l5.3,1.204l-0.596,1.742l-0.108,0.383l-0.109,1.121l-0.108,1.9l0.404,2.654l0.433,1.362l0.171,0.575l-0.2,1.225l0.2,2.196l0.304,1.071l0.113,0.379l-0.417,1.704l0,2.18l-0.2,1.929l-0.996,1.704l-1.045,1.225l-1.434,1.433l-1.4,1.954l-1.033,2.438l-0.6,1.937c-0,0 -3.1,1.8 -2.667,7.23l-3.716,5.162l6.237,-2.483l-5.05,4.7l7.833,-0l-0.562,5.375l6.504,-4.992l-2.504,6.196l9.275,-3.225c-0,-0 14.787,3.583 17.987,3.875c0,-0 -4.741,-4.45 -4.741,-5.833c-0,-1.396 7.396,3.729 8.375,4.708l-4.329,-10.538l5.995,6.388l-1.125,-9.167l6.575,4.021l-0.966,-3.733l6.421,3.883l-5.967,-8.408l-1.221,-2.913l-1.225,-2.925l-2.429,-2.904l-1.85,-2.179l-1.625,-0.729l0.808,-3.175l0.621,-2.904l0,-3.634l0.046,-0.608l0.754,-2.067l0.413,-3.154l0.216,-2.908l7.579,-2.913l3.525,-4.016l4.188,-2.138l1.629,-2.508l2.542,0.362l2.891,-2.883l2.03,4.033l1.137,0.996l1.258,-0.25l1.646,-1.758l1.634,0.387l1.391,-2.641l3.296,-0l4.275,-3.9l2.142,-1.246l4.296,-4.784l-0,5.28l1.275,1.375l1.512,-0.359l1.396,-1.4l3.396,-8.008l0.641,2.617l0.871,2.145l1.017,2.771l1.262,2.234l1.396,0.383l1.134,-0.496l2.52,-6.287l1.392,2.904l1.008,3.383l3.542,9.408l1.875,-0.516l0.288,-1.567l0.408,-5.562l-0.408,-5.109Zm-95.367,-44.516c-1.229,-0 -2.538,0.033 -2.538,-1.188c0,-1.242 0.838,-2.233 1.88,-2.233c1.037,-0 1.866,0.991 1.866,2.233c0,1.221 0.021,1.188 -1.208,1.188" style="fill-rule:nonzero;"></path>
      <path d="M2353.29,521.134c-0,-0 4.191,-10.571 10.233,-16.063c-0,0 3.379,8.129 5.512,10.175c0,0 -3.258,-8.55 9.417,-11.087c0,-0 15.35,3.65 6.663,18.483c-0,0 5.975,0.192 8.279,-3.437c3.783,-6.005 -3.579,-16.775 -3.579,-16.775c-0,-0 2.35,-1.13 4.7,0.504c2.358,1.625 1.341,9.766 1.341,9.766l3.254,-3.154c0,0 3.28,2.942 8.192,14.934c4.917,11.991 6.283,21.55 6.283,21.55c0,-0 -2.079,7.112 -14.266,7.112c-11.359,0 -12.884,-9.846 -12.884,-9.846c0,0 -0.304,9.754 -13.087,9.754c-2.258,0 -3.988,-0.42 -3.988,-0.42c0,-0 -2.554,-9.946 -6.662,-17.788c-4.1,-7.821 -9.408,-13.708 -9.408,-13.708" style="fill-rule:nonzero;"></path>
      <path d="M2351.75,485.05l-0.405,-3.867l6.23,3.354c-0,0 9.325,10.271 20.987,12.196c0,0 12.975,-9.471 15.746,-9.162c4.3,0.521 4.604,6.525 4.604,6.525c0,-0 -3.283,-2.234 -5.629,-1.325c-2.354,0.904 -6.542,4.883 -6.542,4.883c0,0 10.229,-1.821 11.663,3.958c1.116,4.592 -0.913,5.909 -0.913,5.909c0,-0 0.467,-3.521 -0.933,-5.296c-3.883,-4.979 -9.817,-0.521 -9.817,-0.521c0,0 6.546,10.267 5.421,14.233c-1.233,4.284 -3.071,3.667 -3.071,3.667c0,0 2.759,-5.983 -0.304,-10.767c-3.071,-4.779 -8.3,-7.133 -10.342,-6.92c-9.025,0.9 -11.133,7.112 -11.133,7.112c0,0 -1.946,-5.371 -0.621,-7.325c1.325,-1.912 8.692,-2.025 8.692,-2.025c-0,0 -16.675,-5.183 -23.633,-14.629" style="fill-rule:nonzero;"></path>
      <path d="M2311.24,491.132l1.629,-3.558l-3.267,-0.092c0,0 -7.258,6.921 -17.187,9.458c-0,0 -12.384,-9.312 -15.129,-8.945c-3.171,0.4 -5.121,5.275 -5.121,5.275c-0,-0 2.354,-1.909 4.291,-0.913c2.242,1.179 7.167,4.792 7.167,4.792c0,-0 -9.825,-1.692 -11.254,4.062c-1.117,4.571 1.117,6.504 1.117,6.504c-0,0 -0.263,-2.258 1.341,-3.866c4.796,-4.779 9.409,-1.929 9.409,-1.929c-0,-0 -6.95,7.204 -5.734,13.612c0.846,4.383 3.388,4.267 3.388,4.267c-0,-0 -3.279,-5.584 0.291,-10.771c3.234,-4.667 8.355,-7.438 10.334,-6.9c19.346,5.179 13.008,11.683 13.008,11.683c0,0 5.413,-1.204 0.913,-9.137c-1.163,-2.05 -11.563,-5.3 -11.563,-5.3c0,-0 11.05,-3.446 16.367,-8.242" style="fill-rule:nonzero;"></path>
      <path d="M2252.42,546.434c0,0 1.842,-10.862 6.35,-22.05c4.492,-11.187 11.25,-18.608 11.25,-18.608c0,-0 1.434,4.787 4.196,6.287c0,0 0.709,-8.521 5.521,-8.616c0,-0 -10.342,17.262 4.096,18.8c-0,-0 -5.125,-14.438 7.875,-17.996c5.933,-1.629 12.887,6.708 12.887,6.708c0.317,1.533 -4.604,3.775 -4.604,3.775c0,0 4.304,3.55 8.896,-0.125c0,0 3.275,5 3.392,6.1c-0,0 -4.713,4.808 -9.529,14.346c-4.792,9.546 -6.55,18.187 -6.55,18.187c-0,0 -3.575,0.08 -7.038,-0.091c-8.812,-0.404 -10.242,-8.454 -10.242,-8.454c0,-0 -1.012,8.545 -14.22,8.545c-9.409,0 -12.28,-6.808 -12.28,-6.808" style="fill-rule:nonzero;"></path>
      <path d="M2298.76,552.437c-0,0 5.008,-16.862 11.775,-26.125c6.746,-9.25 14.925,-12.287 14.925,-12.287l-0,2.829l-1.225,1.946l-7.058,6.6l-4.08,1.625l6.117,2.329l4.517,-2.429l2.55,-2.142l-0.413,4.075l-1.221,2.525l-1.854,1.438l4.196,1.312l0.313,2.834l2.758,4.9l2.971,-8.534l3.071,1.721l3.479,-1.417l-1.95,-1.737l-2.15,-3.463l-0.088,-2.52l0.709,1.204l5.933,2.946l2.979,0.325l2.446,-0.921l2.667,-3.463l-2.984,-0.8l-5.516,-2.775l-2.763,-1.821l-1.942,-4.354l-0.304,-2.966c0,-0 10.184,1.908 18.921,14.25c8.792,12.391 10.954,24.383 10.954,24.383c-6.458,-0 -6.966,-8.229 -6.966,-8.229c-0,-0 -0.305,9.258 -13.092,9.258c-12.792,0 -13.917,-7.108 -13.917,-7.108c0,-0 -0.404,7.3 -13.187,7.3c-12.796,-0 -13.617,-7.013 -13.617,-7.013c0,0 -3.371,6.704 -6.954,6.304" style="fill-rule:nonzero;"></path>
      <path d="M2244.85,555.077c4.613,-0.096 7.463,-5.083 7.463,-5.083c-0,-0 2.975,5.483 12.896,5.483c9.92,0 13.812,-5.575 13.812,-5.575c0,0 2.358,5.883 12.779,5.883c10.446,0 14.017,-5.695 14.017,-5.695c-0,-0 3.071,5.904 12.483,5.695c10.846,-0.229 14.425,-5.883 14.425,-5.883c0,0 2.867,5.479 13.821,5.479c10.933,0 12.979,-5.696 12.979,-5.696c0,0 2.579,5.6 13.521,5.6c10.933,0 13.7,-5.6 13.7,-5.6c0,0 2.867,5.6 12.779,5.6c9.925,0 13.813,-5.195 13.813,-5.195c-0,-0 1.85,3.762 6.35,4.683l-0,6.517c-0,-0 -2.463,3.445 -13.004,0.808c-5.68,-1.433 -7.98,-6.213 -7.98,-6.213c0,0 -2.141,7.438 -12.683,7.438c-10.529,-0 -13.925,-7.1 -13.925,-7.1c0,-0 -3.667,7.1 -13.787,7.1c-10.134,-0 -13.075,-7.1 -13.075,-7.1c-0,-0 -2.588,6.887 -13.334,6.887c-10.737,0 -13.75,-6.887 -13.75,-6.887c0,-0 -2.396,6.7 -13.154,6.7c-10.737,-0 -13.479,-6.7 -13.479,-6.7c-0,-0 -1.75,6.717 -14.229,6.983c-9.617,0.213 -12.842,-6.983 -12.842,-6.983c0,-0 -3.529,6.75 -12.029,6.887c-6.438,0.096 -7.567,-1.82 -7.567,-1.82l0,-6.213Z" style="fill-rule:nonzero;"></path>
      <path d="M2244.85,564.219l0,6.004l174.838,0l-0,-6.1c-0,0 -1.85,1.225 -6.046,1.225c-10.433,0 -14.829,-5.7 -14.829,-5.7c-0,0 -3.475,5.813 -13.509,5.813c-8.275,-0 -13.395,-5.696 -13.395,-5.696c-0,-0 -5.213,5.696 -13.405,5.696c-8.6,-0 -13.3,-5.604 -13.3,-5.604c0,-0 -4.191,5.491 -14.312,5.491c-7.254,0 -12.692,-5.396 -12.692,-5.396c0,0 -3.879,5.396 -13.508,5.396c-9.613,0 -13.083,-5.283 -13.083,-5.283c-0,-0 -2.45,5.171 -13.605,5.171c-11.162,-0 -13.52,-5.379 -13.52,-5.379c-0,-0 -3.667,5.604 -12.171,5.604c-3.779,-0 -7.463,-1.242 -7.463,-1.242" style="fill-rule:nonzero;"></path>
    </g>
  </g>
</svg>
